<?xml version="1.0" standalone="no"?>
<!DOCTYPE svg PUBLIC "-//W3C//DTD SVG 20010904//EN"
 "http://www.w3.org/TR/2001/REC-SVG-20010904/DTD/svg10.dtd">
<svg version="1.0" xmlns="http://www.w3.org/2000/svg"
 width="317.000000pt" height="69.000000pt" viewBox="0 0 317.000000 69.000000"
 preserveAspectRatio="xMidYMid meet">

<g transform="translate(0.000000,69.000000) scale(0.100000,-0.100000)"
fill="#000000" stroke="none">
<path d="M302 530 c-50 -7 -85 -31 -129 -89 -28 -36 -33 -51 -33 -95 0 -100
29 -149 114 -191 60 -30 115 -32 174 -5 46 21 54 48 27 84 -14 19 -16 19 -50
3 -65 -31 -131 -13 -160 43 -24 47 -19 86 18 126 28 31 39 36 80 36 26 1 53
-4 59 -10 21 -21 47 -13 63 18 14 27 14 30 -7 50 -12 11 -24 20 -27 20 -3 1
-24 4 -46 8 -22 4 -59 5 -83 2z"/>
<path d="M695 527 c-55 -22 -74 -37 -104 -81 -53 -76 -50 -170 6 -237 30 -35
114 -79 153 -79 120 0 224 116 205 229 -21 125 -155 211 -260 168z m129 -117
c18 -17 37 -42 41 -57 16 -66 -51 -127 -150 -136 l-60 -6 -3 42 c-8 130 -8
127 26 158 45 40 99 40 146 -1z"/>
<path d="M1040 335 l0 -205 44 0 44 0 7 117 8 117 46 -94 c43 -89 48 -95 76
-95 28 0 32 5 75 102 l45 103 3 -125 3 -125 38 0 c22 0 41 4 43 10 2 5 1 96
-2 202 l-5 193 -32 3 c-18 2 -41 -1 -51 -7 -10 -5 -40 -57 -67 -115 -27 -59
-51 -106 -54 -106 -3 0 -29 51 -57 113 l-52 112 -56 3 -56 3 0 -206z"/>
<path d="M1592 532 c-9 -7 -12 -54 -10 -203 l3 -194 45 0 45 0 5 115 5 115 79
-103 c80 -104 114 -132 161 -132 l25 0 0 205 0 205 -44 0 -44 0 -6 -62 c-4
-35 -7 -89 -9 -121 l-2 -58 -64 86 c-109 148 -144 175 -189 147z"/>
<path d="M2398 530 c-114 -34 -175 -155 -134 -264 21 -54 77 -112 125 -127 41
-14 118 -6 160 16 35 18 40 47 15 83 l-16 23 -32 -21 c-42 -25 -72 -25 -113 0
-97 59 -61 202 52 202 20 0 47 -8 61 -17 33 -22 48 -15 61 29 13 43 6 51 -63
72 -52 15 -76 16 -116 4z"/>
<path d="M2777 528 c-19 -14 -178 -378 -170 -390 2 -5 22 -8 44 -8 35 0 42 4
60 34 22 37 42 46 109 46 67 0 85 -8 103 -46 15 -31 20 -34 62 -34 35 0 45 4
45 16 0 13 -145 371 -155 382 -10 12 -82 12 -98 0z m63 -154 c32 -74 29 -84
-30 -84 l-50 0 16 38 c9 20 20 49 26 65 5 15 12 27 14 27 3 0 14 -21 24 -46z"/>
<path d="M2056 515 c-3 -9 -5 -96 -4 -195 l1 -180 53 0 54 0 0 195 0 195 -49
0 c-35 0 -51 -4 -55 -15z"/>
</g>
</svg>
