<?xml version="1.0" standalone="no"?>
<!DOCTYPE svg PUBLIC "-//W3C//DTD SVG 20010904//EN"
 "http://www.w3.org/TR/2001/REC-SVG-20010904/DTD/svg10.dtd">
<svg version="1.0" xmlns="http://www.w3.org/2000/svg"
 width="400.000000pt" height="400.000000pt" viewBox="0 0 400.000000 400.000000"
 preserveAspectRatio="xMidYMid meet">

<g transform="translate(0.000000,400.000000) scale(0.100000,-0.100000)"
fill="#000000" stroke="none">
<path d="M1415 2146 c-37 -16 -83 -68 -91 -102 -10 -37 1 -99 22 -128 11 -14
38 -35 62 -47 49 -24 106 -22 147 5 24 16 25 18 10 47 -15 28 -17 29 -38 14
-57 -40 -137 0 -137 70 0 68 81 109 137 70 21 -15 23 -14 38 14 15 29 14 31
-10 47 -34 22 -103 27 -140 10z"/>
<path d="M1725 2146 c-41 -18 -83 -69 -91 -111 -26 -142 143 -239 252 -143
128 113 -5 322 -161 254z m116 -85 c17 -18 29 -40 29 -56 0 -39 -50 -85 -92
-85 -18 0 -44 -3 -58 -7 -22 -6 -23 -5 -12 10 10 12 11 21 3 36 -49 91 57 174
130 102z"/>
<path d="M2000 2004 l0 -155 33 3 32 3 5 89 5 88 32 -73 c25 -60 36 -75 56
-77 22 -3 28 6 60 80 l36 83 1 -98 0 -98 33 3 32 3 0 150 0 150 -36 3 c-43 4
-45 0 -90 -101 l-34 -78 -43 90 -42 91 -40 0 -40 0 0 -156z"/>
<path d="M2404 2147 c-2 -7 -3 -76 -2 -152 l3 -140 35 0 35 0 3 88 3 88 67
-88 c57 -75 72 -88 100 -91 l32 -3 0 155 0 156 -35 0 -34 0 -3 -92 -3 -92 -69
92 c-59 79 -72 92 -97 92 -16 0 -32 -6 -35 -13z"/>
<path d="M2995 2146 c-75 -32 -110 -119 -79 -194 31 -79 106 -117 184 -93 51
15 64 32 49 65 -14 30 -17 31 -43 11 -51 -39 -130 4 -130 70 0 66 79 109 130
70 26 -20 29 -19 42 10 17 37 16 39 -23 58 -42 20 -89 21 -130 3z"/>
<path d="M3291 2143 c-19 -37 -121 -275 -121 -284 0 -5 16 -9 36 -9 31 0 37 4
47 30 11 29 13 30 78 30 65 0 67 -1 78 -30 8 -26 15 -30 45 -30 19 0 37 3 39
8 3 4 -23 72 -58 152 l-62 145 -36 3 c-27 2 -38 -2 -46 -15z m73 -151 c7 -20
4 -22 -33 -22 -23 0 -41 2 -41 4 0 2 9 26 21 53 l21 48 13 -31 c7 -17 16 -40
19 -52z"/>
<path d="M2760 2005 l0 -145 40 0 40 0 0 145 0 145 -40 0 -40 0 0 -145z"/>
</g>
</svg>
